<mxfile host="app.diagrams.net" modified="2023-07-30T22:12:49.202Z" agent="Mozilla/5.0 (Macintosh; Intel Mac OS X 10_15_7) AppleWebKit/537.36 (KHTML, like Gecko) Chrome/115.0.0.0 Safari/537.36" etag="bQMJpsGcji496ud6PKrW" version="21.6.5" type="device">
  <diagram id="C5RBs43oDa-KdzZeNtuy" name="Page-1">
    <mxGraphModel dx="1908" dy="916" grid="1" gridSize="10" guides="1" tooltips="1" connect="1" arrows="1" fold="1" page="1" pageScale="1" pageWidth="827" pageHeight="1169" math="0" shadow="0">
      <root>
        <mxCell id="WIyWlLk6GJQsqaUBKTNV-0" />
        <mxCell id="WIyWlLk6GJQsqaUBKTNV-1" parent="WIyWlLk6GJQsqaUBKTNV-0" />
        <mxCell id="MBSrn5GWHdOphMqyXoHj-0" value="" style="whiteSpace=wrap;html=1;aspect=fixed;" parent="WIyWlLk6GJQsqaUBKTNV-1" vertex="1">
          <mxGeometry x="306" y="71" width="239" height="239" as="geometry" />
        </mxCell>
        <mxCell id="MBSrn5GWHdOphMqyXoHj-63" style="edgeStyle=orthogonalEdgeStyle;rounded=0;orthogonalLoop=1;jettySize=auto;html=1;" parent="WIyWlLk6GJQsqaUBKTNV-1" source="MBSrn5GWHdOphMqyXoHj-18" edge="1">
          <mxGeometry relative="1" as="geometry">
            <mxPoint x="610" y="498" as="targetPoint" />
          </mxGeometry>
        </mxCell>
        <mxCell id="MBSrn5GWHdOphMqyXoHj-18" value="" style="whiteSpace=wrap;html=1;aspect=fixed;" parent="WIyWlLk6GJQsqaUBKTNV-1" vertex="1">
          <mxGeometry x="306" y="378" width="240" height="240" as="geometry" />
        </mxCell>
        <mxCell id="MBSrn5GWHdOphMqyXoHj-45" style="edgeStyle=orthogonalEdgeStyle;rounded=0;orthogonalLoop=1;jettySize=auto;html=1;" parent="WIyWlLk6GJQsqaUBKTNV-1" source="MBSrn5GWHdOphMqyXoHj-27" target="MBSrn5GWHdOphMqyXoHj-42" edge="1">
          <mxGeometry relative="1" as="geometry" />
        </mxCell>
        <mxCell id="MBSrn5GWHdOphMqyXoHj-27" value="&lt;h1&gt;Tasks&lt;/h1&gt;&lt;p&gt;&lt;/p&gt;1. Создание, редактирование, удаление заданий.&lt;br&gt;2. Просмотр детальной информации о&amp;nbsp;задании.&lt;br&gt;3. Загрузка изображений для заданий.&lt;br&gt;4. Отклики на&amp;nbsp;задания.&lt;br&gt;5. Пагинация для списка заданий.&lt;br&gt;6. Категоризация заданий.&lt;br&gt;7. Фильтрация заданий.&lt;br&gt;8. Статистика по&amp;nbsp;выполненным заданиям.&lt;br&gt;9. Разбивка заданий по&amp;nbsp;тегам." style="text;html=1;strokeColor=none;fillColor=none;spacing=5;spacingTop=-20;whiteSpace=wrap;overflow=hidden;rounded=0;" parent="WIyWlLk6GJQsqaUBKTNV-1" vertex="1">
          <mxGeometry x="307" y="377" width="220" height="240" as="geometry" />
        </mxCell>
        <mxCell id="MBSrn5GWHdOphMqyXoHj-43" style="edgeStyle=orthogonalEdgeStyle;rounded=0;orthogonalLoop=1;jettySize=auto;html=1;entryX=0.612;entryY=-0.033;entryDx=0;entryDy=0;entryPerimeter=0;" parent="WIyWlLk6GJQsqaUBKTNV-1" source="MBSrn5GWHdOphMqyXoHj-29" target="MBSrn5GWHdOphMqyXoHj-42" edge="1">
          <mxGeometry relative="1" as="geometry" />
        </mxCell>
        <mxCell id="MBSrn5GWHdOphMqyXoHj-60" style="edgeStyle=orthogonalEdgeStyle;rounded=0;orthogonalLoop=1;jettySize=auto;html=1;" parent="WIyWlLk6GJQsqaUBKTNV-1" source="MBSrn5GWHdOphMqyXoHj-29" edge="1">
          <mxGeometry relative="1" as="geometry">
            <mxPoint x="610" y="159" as="targetPoint" />
          </mxGeometry>
        </mxCell>
        <mxCell id="MBSrn5GWHdOphMqyXoHj-29" value="&lt;h1&gt;User&lt;/h1&gt;&lt;p&gt;&lt;/p&gt;1. Регистрация новых пользователей.&lt;br&gt;2. Авторизация пользователей на&amp;nbsp;основе JWT.&lt;br&gt;3. Разделение пользователей по&amp;nbsp;ролям: «Исполнители», «Заказчики».&lt;br&gt;4. Смена пароля пользователя.&lt;br&gt;5. Расчёт рейтинга пользователя.&lt;br&gt;6. Отзывы." style="text;html=1;strokeColor=none;fillColor=none;spacing=5;spacingTop=-20;whiteSpace=wrap;overflow=hidden;rounded=0;" parent="WIyWlLk6GJQsqaUBKTNV-1" vertex="1">
          <mxGeometry x="307" y="71" width="238" height="176" as="geometry" />
        </mxCell>
        <mxCell id="MBSrn5GWHdOphMqyXoHj-65" style="edgeStyle=orthogonalEdgeStyle;rounded=0;orthogonalLoop=1;jettySize=auto;html=1;" parent="WIyWlLk6GJQsqaUBKTNV-1" edge="1">
          <mxGeometry relative="1" as="geometry">
            <mxPoint x="610" y="772" as="targetPoint" />
            <mxPoint x="545" y="771.9473684210525" as="sourcePoint" />
          </mxGeometry>
        </mxCell>
        <mxCell id="MBSrn5GWHdOphMqyXoHj-32" value="" style="rounded=0;whiteSpace=wrap;html=1;" parent="WIyWlLk6GJQsqaUBKTNV-1" vertex="1">
          <mxGeometry x="307" y="716" width="238" height="100" as="geometry" />
        </mxCell>
        <mxCell id="MBSrn5GWHdOphMqyXoHj-46" style="edgeStyle=orthogonalEdgeStyle;rounded=0;orthogonalLoop=1;jettySize=auto;html=1;entryX=1;entryY=0.75;entryDx=0;entryDy=0;" parent="WIyWlLk6GJQsqaUBKTNV-1" source="MBSrn5GWHdOphMqyXoHj-34" target="MBSrn5GWHdOphMqyXoHj-42" edge="1">
          <mxGeometry relative="1" as="geometry" />
        </mxCell>
        <mxCell id="MBSrn5GWHdOphMqyXoHj-34" value="&lt;h1&gt;Comments&lt;/h1&gt;&lt;p&gt;1. Участие в&amp;nbsp;обсуждении заданий.&lt;br&gt;&lt;/p&gt;" style="text;html=1;strokeColor=none;fillColor=none;spacing=5;spacingTop=-20;whiteSpace=wrap;overflow=hidden;rounded=0;" parent="WIyWlLk6GJQsqaUBKTNV-1" vertex="1">
          <mxGeometry x="306" y="716" width="190" height="90" as="geometry" />
        </mxCell>
        <mxCell id="MBSrn5GWHdOphMqyXoHj-67" style="edgeStyle=orthogonalEdgeStyle;rounded=0;orthogonalLoop=1;jettySize=auto;html=1;" parent="WIyWlLk6GJQsqaUBKTNV-1" edge="1">
          <mxGeometry relative="1" as="geometry">
            <mxPoint x="610" y="981" as="targetPoint" />
            <mxPoint x="545.9999999999998" y="981.0000000000002" as="sourcePoint" />
          </mxGeometry>
        </mxCell>
        <mxCell id="MBSrn5GWHdOphMqyXoHj-39" value="" style="rounded=0;whiteSpace=wrap;html=1;" parent="WIyWlLk6GJQsqaUBKTNV-1" vertex="1">
          <mxGeometry x="308" y="931" width="238" height="120" as="geometry" />
        </mxCell>
        <mxCell id="MBSrn5GWHdOphMqyXoHj-47" style="edgeStyle=orthogonalEdgeStyle;rounded=0;orthogonalLoop=1;jettySize=auto;html=1;" parent="WIyWlLk6GJQsqaUBKTNV-1" source="MBSrn5GWHdOphMqyXoHj-40" edge="1">
          <mxGeometry relative="1" as="geometry">
            <mxPoint x="130" y="641" as="targetPoint" />
          </mxGeometry>
        </mxCell>
        <mxCell id="MBSrn5GWHdOphMqyXoHj-40" value="&lt;h1&gt;Notify&lt;/h1&gt;&lt;p&gt;1. Рассылка почтовых уведомлений на&amp;nbsp;email о&amp;nbsp;появлении новых заданий.&lt;br&gt;&lt;/p&gt;" style="text;html=1;strokeColor=none;fillColor=none;spacing=5;spacingTop=-20;whiteSpace=wrap;overflow=hidden;rounded=0;" parent="WIyWlLk6GJQsqaUBKTNV-1" vertex="1">
          <mxGeometry x="307" y="931" width="190" height="110" as="geometry" />
        </mxCell>
        <mxCell id="MBSrn5GWHdOphMqyXoHj-42" value="&lt;font style=&quot;font-size: 24px;&quot;&gt;&lt;b style=&quot;&quot;&gt;API GATEWAY&lt;/b&gt;&lt;/font&gt;" style="whiteSpace=wrap;html=1;aspect=fixed;" parent="WIyWlLk6GJQsqaUBKTNV-1" vertex="1">
          <mxGeometry x="10" y="441" width="190" height="190" as="geometry" />
        </mxCell>
        <mxCell id="MBSrn5GWHdOphMqyXoHj-61" style="edgeStyle=orthogonalEdgeStyle;rounded=0;orthogonalLoop=1;jettySize=auto;html=1;" parent="WIyWlLk6GJQsqaUBKTNV-1" edge="1">
          <mxGeometry relative="1" as="geometry">
            <mxPoint x="550" y="175.5" as="targetPoint" />
            <mxPoint x="614" y="175.52631578947376" as="sourcePoint" />
          </mxGeometry>
        </mxCell>
        <mxCell id="MBSrn5GWHdOphMqyXoHj-48" value="" style="shape=cylinder3;whiteSpace=wrap;html=1;boundedLbl=1;backgroundOutline=1;size=15;" parent="WIyWlLk6GJQsqaUBKTNV-1" vertex="1">
          <mxGeometry x="614" y="106" width="90" height="119" as="geometry" />
        </mxCell>
        <mxCell id="MBSrn5GWHdOphMqyXoHj-49" value="&lt;font style=&quot;font-size: 18px;&quot;&gt;&lt;b&gt;MongoDB&lt;/b&gt;&lt;/font&gt;" style="text;html=1;strokeColor=none;fillColor=none;align=center;verticalAlign=middle;whiteSpace=wrap;rounded=0;" parent="WIyWlLk6GJQsqaUBKTNV-1" vertex="1">
          <mxGeometry x="629" y="246" width="60" height="30" as="geometry" />
        </mxCell>
        <mxCell id="MBSrn5GWHdOphMqyXoHj-62" style="edgeStyle=orthogonalEdgeStyle;rounded=0;orthogonalLoop=1;jettySize=auto;html=1;" parent="WIyWlLk6GJQsqaUBKTNV-1" source="MBSrn5GWHdOphMqyXoHj-51" edge="1">
          <mxGeometry relative="1" as="geometry">
            <mxPoint x="550" y="478.5" as="targetPoint" />
          </mxGeometry>
        </mxCell>
        <mxCell id="MBSrn5GWHdOphMqyXoHj-51" value="" style="shape=cylinder3;whiteSpace=wrap;html=1;boundedLbl=1;backgroundOutline=1;size=15;" parent="WIyWlLk6GJQsqaUBKTNV-1" vertex="1">
          <mxGeometry x="614" y="416" width="90" height="125" as="geometry" />
        </mxCell>
        <mxCell id="MBSrn5GWHdOphMqyXoHj-64" style="edgeStyle=orthogonalEdgeStyle;rounded=0;orthogonalLoop=1;jettySize=auto;html=1;" parent="WIyWlLk6GJQsqaUBKTNV-1" source="MBSrn5GWHdOphMqyXoHj-52" edge="1">
          <mxGeometry relative="1" as="geometry">
            <mxPoint x="550" y="759.5" as="targetPoint" />
          </mxGeometry>
        </mxCell>
        <mxCell id="MBSrn5GWHdOphMqyXoHj-52" value="" style="shape=cylinder3;whiteSpace=wrap;html=1;boundedLbl=1;backgroundOutline=1;size=15;" parent="WIyWlLk6GJQsqaUBKTNV-1" vertex="1">
          <mxGeometry x="614" y="697" width="90" height="125" as="geometry" />
        </mxCell>
        <mxCell id="MBSrn5GWHdOphMqyXoHj-53" value="&lt;span style=&quot;font-size: 18px;&quot;&gt;&lt;b&gt;PostgreSQL&lt;/b&gt;&lt;/span&gt;" style="text;html=1;strokeColor=none;fillColor=none;align=center;verticalAlign=middle;whiteSpace=wrap;rounded=0;" parent="WIyWlLk6GJQsqaUBKTNV-1" vertex="1">
          <mxGeometry x="631" y="559" width="60" height="30" as="geometry" />
        </mxCell>
        <mxCell id="MBSrn5GWHdOphMqyXoHj-54" value="&lt;span style=&quot;font-size: 18px;&quot;&gt;&lt;b&gt;PostgreSQL&lt;/b&gt;&lt;/span&gt;" style="text;html=1;strokeColor=none;fillColor=none;align=center;verticalAlign=middle;whiteSpace=wrap;rounded=0;" parent="WIyWlLk6GJQsqaUBKTNV-1" vertex="1">
          <mxGeometry x="629" y="837" width="60" height="30" as="geometry" />
        </mxCell>
        <mxCell id="MBSrn5GWHdOphMqyXoHj-55" value="&lt;span style=&quot;color: rgb(0, 0, 0); font-family: Helvetica; font-style: normal; font-variant-ligatures: normal; font-variant-caps: normal; letter-spacing: normal; orphans: 2; text-align: center; text-indent: 0px; text-transform: none; widows: 2; word-spacing: 0px; -webkit-text-stroke-width: 0px; background-color: rgb(251, 251, 251); text-decoration-thickness: initial; text-decoration-style: initial; text-decoration-color: initial; float: none; display: inline !important;&quot;&gt;&lt;font style=&quot;font-size: 18px;&quot;&gt;&lt;b&gt;RabbitMQ&lt;/b&gt;&lt;/font&gt;&lt;/span&gt;" style="text;whiteSpace=wrap;html=1;" parent="WIyWlLk6GJQsqaUBKTNV-1" vertex="1">
          <mxGeometry x="616" y="1064" width="90" height="40" as="geometry" />
        </mxCell>
        <mxCell id="MBSrn5GWHdOphMqyXoHj-66" style="edgeStyle=orthogonalEdgeStyle;rounded=0;orthogonalLoop=1;jettySize=auto;html=1;" parent="WIyWlLk6GJQsqaUBKTNV-1" source="MBSrn5GWHdOphMqyXoHj-56" edge="1">
          <mxGeometry relative="1" as="geometry">
            <mxPoint x="550" y="996" as="targetPoint" />
          </mxGeometry>
        </mxCell>
        <mxCell id="MBSrn5GWHdOphMqyXoHj-56" value="" style="shape=cylinder3;whiteSpace=wrap;html=1;boundedLbl=1;backgroundOutline=1;size=15;" parent="WIyWlLk6GJQsqaUBKTNV-1" vertex="1">
          <mxGeometry x="616" y="936" width="90" height="120" as="geometry" />
        </mxCell>
        <mxCell id="MBSrn5GWHdOphMqyXoHj-70" value="" style="rounded=1;whiteSpace=wrap;html=1;fillColor=none;dashed=1;dashPattern=8 8;" parent="WIyWlLk6GJQsqaUBKTNV-1" vertex="1">
          <mxGeometry x="280" y="47" width="450" height="284" as="geometry" />
        </mxCell>
        <mxCell id="MBSrn5GWHdOphMqyXoHj-71" value="" style="rounded=1;whiteSpace=wrap;html=1;fillColor=none;dashed=1;dashPattern=8 8;" parent="WIyWlLk6GJQsqaUBKTNV-1" vertex="1">
          <mxGeometry x="290" y="351" width="450" height="310" as="geometry" />
        </mxCell>
        <mxCell id="MBSrn5GWHdOphMqyXoHj-72" value="" style="rounded=1;whiteSpace=wrap;html=1;fillColor=none;dashed=1;dashPattern=8 8;" parent="WIyWlLk6GJQsqaUBKTNV-1" vertex="1">
          <mxGeometry x="290" y="681" width="450" height="200" as="geometry" />
        </mxCell>
        <mxCell id="MBSrn5GWHdOphMqyXoHj-73" value="" style="rounded=1;whiteSpace=wrap;html=1;fillColor=none;dashed=1;dashPattern=8 8;" parent="WIyWlLk6GJQsqaUBKTNV-1" vertex="1">
          <mxGeometry x="290" y="911" width="450" height="200" as="geometry" />
        </mxCell>
        <mxCell id="MBSrn5GWHdOphMqyXoHj-75" value="" style="edgeStyle=orthogonalEdgeStyle;rounded=0;orthogonalLoop=1;jettySize=auto;html=1;curved=1;" parent="WIyWlLk6GJQsqaUBKTNV-1" edge="1">
          <mxGeometry relative="1" as="geometry">
            <Array as="points">
              <mxPoint x="820" y="161" />
              <mxPoint x="820" y="1041" />
            </Array>
            <mxPoint x="740" y="161" as="sourcePoint" />
            <mxPoint x="760" y="1041" as="targetPoint" />
          </mxGeometry>
        </mxCell>
        <mxCell id="MBSrn5GWHdOphMqyXoHj-81" style="edgeStyle=orthogonalEdgeStyle;rounded=0;orthogonalLoop=1;jettySize=auto;html=1;curved=1;entryX=1.006;entryY=0.37;entryDx=0;entryDy=0;entryPerimeter=0;" parent="WIyWlLk6GJQsqaUBKTNV-1" edge="1">
          <mxGeometry relative="1" as="geometry">
            <mxPoint x="740" y="461" as="sourcePoint" />
            <mxPoint x="742.6999999999998" y="985.0000000000002" as="targetPoint" />
            <Array as="points">
              <mxPoint x="790" y="461" />
              <mxPoint x="790" y="985" />
            </Array>
          </mxGeometry>
        </mxCell>
        <mxCell id="MBSrn5GWHdOphMqyXoHj-83" value="" style="curved=1;endArrow=classic;html=1;rounded=0;exitX=1.004;exitY=0.542;exitDx=0;exitDy=0;exitPerimeter=0;" parent="WIyWlLk6GJQsqaUBKTNV-1" source="MBSrn5GWHdOphMqyXoHj-72" edge="1">
          <mxGeometry width="50" height="50" relative="1" as="geometry">
            <mxPoint x="850" y="751" as="sourcePoint" />
            <mxPoint x="750" y="571" as="targetPoint" />
            <Array as="points">
              <mxPoint x="770" y="661" />
            </Array>
          </mxGeometry>
        </mxCell>
      </root>
    </mxGraphModel>
  </diagram>
</mxfile>
